<svg width="587" height="410" viewBox="0 0 587 410" fill="none" xmlns="http://www.w3.org/2000/svg">
<g clip-path="url(#clip0)">
<path d="M473.44 409.88C536.091 409.88 586.88 359.091 586.88 296.44C586.88 233.789 536.091 183 473.44 183C410.789 183 360 233.789 360 296.44C360 359.091 410.789 409.88 473.44 409.88Z" fill="#F2F2F2"/>
<path d="M552.71 371.92C533.057 394.282 505.398 408.019 475.705 410.165C446.011 412.311 416.664 402.694 394 383.39L403.73 356.24C405.929 351.418 409.399 347.285 413.768 344.285C418.137 341.285 423.24 339.53 428.53 339.21L434.72 338.83L449.48 326.1C449.48 326.1 489.25 324.68 488.66 324L512.75 338.49L512.73 338.39L522.2 338.97C527.491 339.289 532.594 341.043 536.964 344.043C541.333 347.043 544.802 351.177 547 356L552.71 371.92Z" fill="#00A19D"/>
<path d="M467.415 304.83C486.422 304.83 501.83 289.422 501.83 270.415C501.83 251.408 486.422 236 467.415 236C448.408 236 433 251.408 433 270.415C433 289.422 448.408 304.83 467.415 304.83Z" fill="#9E616A"/>
<path d="M506.033 252.798C505.856 249.306 504.942 245.891 503.349 242.778C501.757 239.665 499.522 236.925 496.794 234.739C494.788 233.153 492.468 231.813 491.14 229.628C490.383 228.081 489.741 226.48 489.22 224.838C486.578 218.55 479.048 215.208 472.294 216.16C465.54 217.112 459.695 221.656 455.758 227.225C453.818 226.296 451.653 225.942 449.518 226.205C447.383 226.468 445.369 227.337 443.712 228.71C442.056 230.083 440.828 231.901 440.174 233.95C439.519 235.999 439.465 238.193 440.019 240.271C436.521 237.454 430.864 239.707 428.68 243.632C426.497 247.557 426.844 252.36 427.493 256.804C428.669 264.836 430.627 272.734 433.341 280.384C436.747 277.386 436.538 271.924 436.121 267.308C435.689 262.511 435.948 256.656 440.142 254.289C444.194 252.002 449.112 254.513 453.58 255.811C457.113 256.812 460.82 257.034 464.447 256.464C468.073 255.893 471.533 254.543 474.588 252.507C476.916 250.932 478.988 248.96 481.496 247.694C484.005 246.428 487.198 245.989 489.534 247.551C491.667 248.977 492.535 251.638 493.26 254.1C494.981 259.933 496.701 265.767 498.421 271.6C500.946 269.182 502.931 266.256 504.243 263.015C505.555 259.774 506.165 256.292 506.033 252.798Z" fill="#2F2E41"/>
<path d="M113.44 410.88C176.091 410.88 226.88 360.091 226.88 297.44C226.88 234.789 176.091 184 113.44 184C50.7888 184 0 234.789 0 297.44C0 360.091 50.7888 410.88 113.44 410.88Z" fill="#F2F2F2"/>
<path d="M114.453 302.169C139.437 302.169 159.69 281.916 159.69 256.933C159.69 231.95 139.437 211.697 114.453 211.697C89.4702 211.697 69.2173 231.95 69.2173 256.933C69.2173 281.916 89.4702 302.169 114.453 302.169Z" fill="#2F2E41"/>
<path d="M114.472 308.112C136.791 308.112 154.883 290.019 154.883 267.701C154.883 245.382 136.791 227.289 114.472 227.289C92.1534 227.289 74.0605 245.382 74.0605 267.701C74.0605 290.019 92.1534 308.112 114.472 308.112Z" fill="#FFB8B8"/>
<path d="M198.235 371.979C178.582 394.341 150.923 408.078 121.229 410.224C91.5358 412.37 62.1892 402.753 39.5249 383.449L49.2549 356.299C51.4537 351.477 54.9237 347.344 59.2926 344.344C63.6616 341.344 68.7647 339.59 74.0549 339.269L80.2449 338.889L95.0049 326.159C95.0049 326.159 134.775 324.739 134.185 324.059L158.275 338.549L158.255 338.449L167.725 339.029C173.015 339.348 178.119 341.102 182.488 344.102C186.858 347.103 190.327 351.236 192.525 356.059L198.235 371.979Z" fill="#00A19D"/>
<path d="M157.107 253.528C157.39 250.511 157.52 247.481 157.496 244.451C157.661 238.458 156.563 232.497 154.273 226.956C151.457 220.821 146.436 215.97 140.207 213.367C134.033 210.877 127.134 210.883 120.964 213.384C115.394 209.865 109.206 207.075 102.688 206.729C96.1705 206.384 89.2795 208.802 85.263 214.124C84.3661 215.529 83.3474 216.853 82.2187 218.079C78.9901 221.069 74.0835 220.638 69.7922 220.027C71.717 221.676 73.6422 223.326 75.568 224.975C73.2381 225.584 70.908 226.193 68.5777 226.801C71.2968 228.45 74.0157 230.1 76.7343 231.749C68.841 236.486 65.2533 246.827 66.201 256.219C67.0976 265.11 71.3904 273.241 76.522 280.468C78.5691 276.148 78.128 270.979 78.0942 266.114C78.0755 264.535 78.1718 262.958 78.3823 261.394C95.725 265.551 113.846 268.219 132.223 261.617L135.911 252.591C136.428 252.644 136.946 252.694 137.463 252.749L139.6 261.625C144.444 263.605 149.298 265.335 154.154 263.517C154.39 264.888 154.532 266.287 154.642 267.632C155.058 266.023 155.42 264.403 155.746 262.776C156.388 262.432 157.002 262.039 157.585 261.601C157.702 258.901 157.542 256.196 157.107 253.528Z" fill="#2F2E41"/>
<path d="M289.3 226.88C351.951 226.88 402.74 176.091 402.74 113.44C402.74 50.7888 351.951 0 289.3 0C226.649 0 175.86 50.7888 175.86 113.44C175.86 176.091 226.649 226.88 289.3 226.88Z" fill="#F2F2F2"/>
<path d="M293.923 125.012C314.353 125.012 330.914 108.45 330.914 88.021C330.914 67.5916 314.353 51.0303 293.923 51.0303C273.494 51.0303 256.933 67.5916 256.933 88.021C256.933 108.45 273.494 125.012 293.923 125.012Z" fill="#FFB8B8"/>
<path d="M373.985 188.871C354.332 211.233 326.673 224.97 296.979 227.116C267.286 229.262 237.939 219.645 215.275 200.341L225.005 173.191C227.204 168.368 230.674 164.236 235.043 161.236C239.412 158.235 244.515 156.481 249.805 156.161L255.995 155.781L270.755 143.051C270.755 143.051 310.525 141.631 309.935 140.951L334.025 155.441L334.005 155.341L343.475 155.921C348.765 156.24 353.869 157.994 358.238 160.994C362.608 163.994 366.077 168.128 368.275 172.951L373.985 188.871Z" fill="#00A19D"/>
<path d="M326.493 63.5838C326.493 63.5838 336.124 45.1721 314.935 43.4983C314.935 43.4983 296.871 27.1123 278.46 40.5027C278.46 40.5027 268.417 40.5027 262.925 51.8672C262.925 51.8672 255.026 48.8716 253.291 56.8886C253.291 56.8886 247.511 73.6266 253.291 88.6908C259.07 103.755 260.99 105.429 260.99 105.429C260.99 105.429 256.935 86.735 280.052 85.0612C303.169 83.3874 324.376 68.9056 326.303 87.3174C328.229 105.729 330.347 97.4118 330.347 97.4118C330.347 97.4118 348.645 71.116 326.493 63.5838Z" fill="#2F2E41"/>
</g>
<defs>
<clipPath id="clip0">
<rect width="587" height="410" fill="white"/>
</clipPath>
</defs>
</svg>
