<svg width="56" height="50" viewBox="0 0 56 50" fill="#fff" xmlns="http://www.w3.org/2000/svg">
<path d="M0 24.5772C0 21.9208 2.15339 19.7674 4.80972 19.7674H51.1903C53.8466 19.7674 56 21.9208 56 24.5772C56 27.2335 53.8466 29.3869 51.1903 29.3869H4.80972C2.15339 29.3869 0 27.2335 0 24.5772Z"/>
<path d="M0 45.1903C0 42.5339 2.15339 40.3805 4.80972 40.3805H51.1903C53.8466 40.3805 56 42.5339 56 45.1903C56 47.8466 53.8466 50 51.1903 50H4.80972C2.15339 50 0 47.8466 0 45.1903Z"/>
<path d="M0 4.80972C0 2.15339 2.15339 0 4.80972 0H51.1903C53.8466 0 56 2.15339 56 4.80972C56 7.46606 53.8466 9.61945 51.1903 9.61945H4.80972C2.15339 9.61945 0 7.46606 0 4.80972Z"/>
</svg>
