<svg width="90" height="90" viewBox="0 0 90 90" fill="none" xmlns="http://www.w3.org/2000/svg">
<path d="M83.4346 3.75153C83.4346 1.69187 81.7427 0 79.683 0H21.001C12.9462 0 6.56494 6.38128 6.56494 14.2521C6.56494 14.2521 6.56494 78.5247 6.56494 78.5615C6.56494 84.9428 11.8061 90 18.1873 90H79.4991C81.0071 90 82.4967 89.0621 83.0668 87.5542C83.6369 86.0462 83.2507 84.3727 81.945 83.4348C78.6164 81.32 78.4141 76.6857 81.3749 74.6261C82.0002 74.0008 83.4162 72.7135 83.3058 70.8745C83.3978 70.5803 83.4346 3.75153 83.4346 3.75153ZM14.068 78.5615C14.068 76.3179 15.9438 74.6261 18.1873 74.6261H72.1984C70.5433 77.3846 70.8927 80.6212 72.1984 82.4969H18.1873C15.9438 82.4969 14.068 80.8235 14.068 78.5615ZM75.9499 67.123H18.2057C16.7529 67.123 15.3737 67.3989 14.0864 67.8954V14.2521C14.0864 10.5006 17.2678 7.50307 21.0194 7.50307H75.9683V67.123H75.9499Z" fill="white"/>
</svg>
