<svg width="113" height="107" viewBox="0 0 113 107" fill="none" xmlns="http://www.w3.org/2000/svg">
<g clip-path="url(#clip0)">
<path d="M21.9751 53.9455C14.2005 53.9455 7.92461 60.2214 7.92461 67.996C7.92461 74.1314 2.49175 77.363 -1.44238 77.363C2.86643 83.0769 10.2195 86.73 17.2916 86.73C27.6421 86.73 36.0256 78.3465 36.0256 67.996C36.0256 60.2214 29.7497 53.9455 21.9751 53.9455ZM86.1858 10.0612L79.9099 3.78533C78.0834 1.95876 75.1327 1.95876 73.3062 3.78533L31.3421 45.7494L44.2217 58.629L86.1858 16.6649C88.0124 14.8384 88.0124 11.8878 86.1858 10.0612Z" fill="white"/>
<path d="M83.605 44.8077L64.4453 70.3541L79.0067 89.7693L70.8319 95.9004C62.1972 84.4045 47.8402 65.2448 47.8402 65.2448L17.1846 106.119H129.588L83.605 44.8077Z" fill="#fff"/>
</g>
<defs>
<clipPath id="clip0">
<rect width="113" height="107" fill="white"/>
</clipPath>
</defs>
</svg>
