<svg width="1190" height="1157" viewBox="0 0 1190 1157" fill="none" xmlns="http://www.w3.org/2000/svg">
<g clip-path="url(#clip0)">
<path d="M1.48521 1018.45C4.0339 1033.99 7.72178 1046.12 20.6812 1081.38C33.5462 1116.26 37.7997 1132.94 37.8852 1147.91L37.882 1152.93L65.9295 1152.95L94.0718 1152.97L93.413 1145.67C91.7189 1127.38 87.9374 1113.35 74.4103 1076.68C59.4644 1036.02 55.9674 1021.61 55.9801 1001.33C55.9927 981.056 59.5076 966.655 74.5043 926.015C90.1653 883.574 93.3952 870.5 93.4081 849.749C93.421 828.997 90.2075 815.919 74.5994 773.459C59.6535 732.8 56.1565 718.395 56.1692 698.117C56.1818 677.84 59.6967 663.439 74.6934 622.798C90.3544 580.358 93.5843 567.284 93.5972 546.532C93.6102 525.781 90.3966 512.703 74.7885 470.243C59.8426 429.584 56.3456 415.179 56.3583 394.901C56.3709 374.623 59.8859 360.223 74.8825 319.582C90.5436 277.142 93.7734 264.068 93.7863 243.316C93.7993 222.565 90.5858 209.487 74.9777 167.027C60.0317 126.367 56.5348 111.962 56.5474 91.6849C56.56 71.4073 60.075 57.0066 75.0716 16.3661C88.6445 -20.2956 92.4434 -34.3171 94.1604 -52.6037L94.8282 -59.8994L66.686 -59.917L38.6385 -59.9345L38.6354 -55.0072C38.5309 -39.3727 34.4469 -24.0249 19.6399 16.3315C3.59902 60.0984 1.22417 69.6672 1.21046 91.6504C1.19674 113.634 3.55966 123.205 19.546 166.992C35.5324 210.589 38.4624 222.436 38.4494 243.282C38.4364 264.128 35.4916 275.97 19.4508 319.548C3.4099 363.315 1.03505 372.883 1.02134 394.867C1.00763 416.85 3.37054 426.421 19.3568 470.208C35.3433 513.806 38.2733 525.652 38.2603 546.498C38.2473 567.344 35.3025 579.187 19.2617 622.764C3.22078 666.531 0.845933 676.1 0.832222 698.083C0.818511 720.066 3.18142 729.638 19.1677 773.424C35.1541 817.022 38.0842 828.868 38.0712 849.714C38.0582 870.56 35.1134 882.403 19.0726 925.98C8.72666 954.211 5.49867 964.347 2.93283 976.285C0.366761 988.602 -0.308402 1007.65 1.48521 1018.45Z" fill="black" fill-opacity="0.06"/>
<path d="M100.03 1018.51C102.579 1034.05 106.551 1047.13 118.943 1080.49C131.051 1113.19 135.022 1127.69 136.054 1143.71L136.712 1152.99L164.57 1153.01L192.333 1153.03L192.335 1149.33C192.339 1143.36 188.75 1124.22 185.63 1113.32C184.023 1107.82 178.347 1091.33 172.956 1076.74C158.01 1036.08 154.513 1021.67 154.525 1001.4C154.538 981.118 158.053 966.717 173.05 926.076C184.439 895.099 188.047 883.541 190.615 868.287C192.993 854.264 192.998 845.357 190.638 831.332C188.089 816.075 184.496 804.513 173.145 773.521C158.199 732.861 154.702 718.457 154.714 698.179C154.727 677.901 158.242 663.501 173.239 622.86C178.649 608.271 184.344 591.788 185.959 586.293C189.757 573.219 192.705 555.881 192.711 546.595C192.717 537.309 189.79 519.967 186.008 506.888C184.401 501.391 178.726 484.9 173.334 470.305C158.388 429.645 154.891 415.24 154.904 394.963C154.916 374.685 158.431 360.285 173.428 319.644C184.818 288.666 188.426 277.108 190.993 261.854C193.371 247.832 193.377 238.925 191.017 224.9C188.468 209.643 184.874 198.08 173.523 167.088C158.577 126.429 155.08 112.024 155.093 91.7467C155.105 71.4691 158.62 57.0685 173.617 16.4279C179.027 1.83899 184.723 -14.6449 186.337 -20.1396C189.471 -31.0345 193.083 -50.1728 193.087 -56.1424L193.089 -59.8378L165.326 -59.8551L137.468 -59.8725L136.799 -50.6816C135.651 -33.9107 132.423 -22.2578 118.185 16.3933C102.239 59.876 99.7694 69.7289 99.7557 91.7122C99.742 113.695 102.199 123.551 118.091 167.054C134.929 212.926 136.441 219.181 136.426 243.343C136.411 267.506 134.891 273.759 117.996 319.609C102.05 363.092 99.5803 372.945 99.5666 394.928C99.5529 416.911 102.01 426.768 117.902 470.27C134.74 516.142 136.252 522.397 136.237 546.559C136.222 570.722 134.702 576.975 117.807 622.826C101.861 666.308 99.3912 676.161 99.3775 698.144C99.3637 720.128 101.821 729.984 117.713 773.486C134.551 819.358 136.063 825.613 136.048 849.775C136.033 873.938 134.513 880.191 117.618 926.042C107.367 953.988 104.044 964.314 101.478 976.347C98.912 988.663 98.2368 1007.71 100.03 1018.51Z" fill="black" fill-opacity="0.06"/>
<path d="M197.726 1013.27C200.557 1031.93 204.245 1044.82 215.785 1075.82C229.407 1112.49 233.662 1127.56 234.694 1143.77L235.257 1153.05L263.115 1153.07L290.878 1153.09L290.88 1149.77C290.883 1144.65 288.335 1128.92 286.161 1120.39C283.325 1109.31 282.19 1105.99 271.501 1076.8C256.555 1036.04 253.058 1021.73 253.07 1001.46C253.083 981.179 256.598 966.873 271.595 926.137C284.978 889.76 287.067 882.56 289.636 865.79C291.443 854.041 291.449 845.703 289.656 833.952C287.108 817.179 285.028 809.976 271.69 773.582C256.744 732.828 253.247 718.518 253.26 698.24C253.272 677.962 256.787 663.657 271.784 622.921C285.167 586.544 287.256 579.344 289.825 562.573C292.204 546.94 291.17 532.158 286.539 513.962C283.703 502.874 282.568 499.557 271.879 470.366C256.933 429.612 253.436 415.301 253.449 395.024C253.461 374.746 256.976 360.44 271.973 319.705C285.356 283.327 287.445 276.127 290.014 259.357C291.822 247.609 291.827 239.27 290.034 227.52C287.486 210.746 285.406 203.544 272.068 167.149C257.122 126.395 253.625 112.085 253.638 91.8077C253.65 71.5301 257.165 57.2242 272.162 16.4889C282.888 -12.6889 284.027 -16.0046 286.876 -27.0892C289.061 -35.6159 291.629 -51.3435 291.632 -56.4604L291.634 -59.7768L263.871 -59.7941L236.013 -59.8115L235.439 -50.6205C234.386 -34.3233 230.113 -19.2599 216.445 17.4017C201.449 57.6634 198.314 70.6427 198.301 91.7732C198.288 112.904 201.406 125.982 216.353 166.167C232.623 209.765 235.081 220.095 235.066 243.404C235.051 266.714 232.581 277.041 216.256 320.618C201.26 360.785 198.125 373.859 198.112 394.989C198.099 416.12 201.217 429.198 216.164 469.383C232.434 512.981 234.891 523.311 234.877 546.62C234.862 569.93 232.392 580.257 216.067 623.834C201.071 664.001 197.936 677.075 197.923 698.205C197.909 719.336 201.028 732.414 215.974 772.6C232.245 816.197 234.702 826.527 234.688 849.837C234.673 873.146 232.203 883.473 215.878 927.05C206.671 951.776 201.829 967.123 199.548 978.776C198.027 986.64 196.877 1007.67 197.726 1013.27Z" fill="black" fill-opacity="0.06"/>
<path d="M297.215 1019.3C299.197 1032.09 303.831 1047.16 314.898 1077.49C328.709 1114.83 333.53 1133.22 333.521 1147.52L333.518 1153.11L361.565 1153.13L389.708 1153.15L389.049 1145.28C387.544 1127.66 384.046 1114.87 370.046 1076.86C355.1 1036.2 351.603 1021.8 351.616 1001.52C351.628 981.24 355.143 966.84 370.14 926.199C386.655 881.485 388.935 872.011 388.949 849.933C388.963 827.855 386.695 818.378 370.235 773.644C355.289 732.984 351.792 718.579 351.805 698.302C351.818 678.024 355.332 663.624 370.329 622.983C386.844 578.269 389.124 568.795 389.138 546.717C389.152 524.639 386.884 515.162 370.424 470.428C355.478 429.768 351.981 415.363 351.994 395.086C352.007 374.808 355.522 360.408 370.518 319.767C387.034 275.053 389.314 265.579 389.327 243.501C389.341 221.423 387.073 211.946 370.613 167.211C355.667 126.552 352.17 112.147 352.183 91.8696C352.196 71.592 355.711 57.1915 370.707 16.5509C384.755 -21.4372 388.269 -34.2269 389.796 -51.9451L390.464 -59.7146L362.322 -59.7322L334.274 -59.7497L334.271 -54.1592C334.262 -39.8511 329.418 -21.4717 315.56 15.8532C304.075 47.1152 299.803 61.2311 297.804 74.9693C293.903 100.93 297.114 117.893 315.466 167.84C330.601 208.973 334.098 223.094 334.085 243.466C334.072 263.839 330.558 277.955 315.371 319.069C303.886 350.331 299.614 364.447 297.615 378.185C293.714 404.146 296.925 421.109 315.276 471.056C330.412 512.19 333.909 526.31 333.896 546.683C333.883 567.055 330.369 581.171 315.182 622.285C296.768 672.21 293.536 689.169 297.405 715.134C299.386 728.875 303.641 742.996 315.087 774.273C330.222 815.406 333.72 829.526 333.707 849.899C333.694 870.271 330.179 884.387 314.993 925.502C309.583 940.28 303.697 957.332 301.893 963.49C295.911 984.238 294.479 1001.39 297.215 1019.3Z" fill="black" fill-opacity="0.06"/>
<path d="M395.76 1019.36C397.742 1032.15 402.376 1047.22 413.443 1077.55C427.254 1114.89 432.075 1133.28 432.066 1147.59L432.063 1153.18L460.11 1153.19L488.253 1153.21L487.594 1145.63C486.089 1127.72 482.308 1113.88 468.213 1075.78C453.74 1036.55 450.148 1021.76 450.161 1001.58C450.174 981.396 453.783 966.617 468.211 927.681C483.112 887.514 486.721 873.967 487.775 855.206C488.925 835.308 484.862 817.207 470.578 778.728C454.496 735.32 451.377 723.663 450.631 703.006C449.793 679.98 453.023 665.864 468.779 623.423C483.206 584.582 486.91 570.656 487.964 551.99C489.114 532.092 485.051 513.991 470.767 475.512C454.685 432.104 451.566 420.447 450.821 399.79C449.982 376.764 453.213 362.647 468.968 320.207C483.395 281.366 487.1 267.44 488.153 248.774C489.303 228.876 485.24 210.775 470.956 172.295C454.874 128.888 451.755 117.231 451.01 96.5737C450.171 73.5477 453.402 59.4312 469.158 16.9908C482.73 -19.671 486.909 -34.4502 488.341 -51.8842L489.009 -59.6537L460.867 -59.6713L432.819 -59.6888L432.816 -54.0982C432.807 -39.7902 427.963 -21.4108 414.105 15.9141C402.621 47.1761 398.348 61.292 396.349 75.0302C392.448 100.991 395.659 117.954 414.011 167.901C429.146 209.034 432.643 223.155 432.63 243.527C432.618 263.9 429.103 278.016 413.916 319.13C402.432 350.392 398.159 364.508 396.16 378.246C392.259 404.207 395.47 421.17 413.822 471.117C428.957 512.251 432.454 526.371 432.441 546.744C432.428 567.116 428.914 581.232 413.727 622.346C402.242 653.608 397.97 667.724 395.971 681.463C392.07 707.423 395.281 724.386 413.632 774.334C428.768 815.467 432.265 829.587 432.252 849.96C432.239 870.332 428.725 884.448 413.538 925.563C408.128 940.341 402.242 957.393 400.438 963.551C394.456 984.299 393.024 1001.45 395.76 1019.36Z" fill="black" fill-opacity="0.06"/>
<path d="M494.306 1019.42C496.288 1032.21 500.921 1047.28 511.989 1077.61C525.8 1114.95 530.621 1133.34 530.612 1147.65L530.608 1153.24L558.561 1153.26L586.514 1153.27L586.516 1149.86C586.52 1143.13 583.499 1126.36 580.379 1115.27C578.582 1109.11 572.718 1092.05 567.326 1077.27C552.191 1036.13 548.694 1022.01 548.706 1001.64C548.719 981.268 552.234 967.152 567.42 926.038C578.905 894.776 583.178 880.66 585.176 866.922C589.078 840.961 585.866 823.998 567.515 774.051C552.38 732.918 548.883 718.797 548.896 698.425C548.908 678.052 552.423 663.936 567.609 622.822C586.023 572.897 589.255 555.938 585.387 529.973C583.405 516.232 579.15 502.111 567.704 470.834C552.569 429.701 549.072 415.581 549.085 395.208C549.097 374.836 552.612 360.72 567.799 319.605C579.283 288.343 583.556 274.228 585.555 260.489C589.456 234.529 586.245 217.566 567.893 167.618C552.758 126.485 549.261 112.364 549.274 91.9921C549.287 71.6197 552.801 57.5034 567.988 16.3892C573.398 1.61072 579.283 -15.4415 581.088 -21.5995C584.221 -32.6838 587.264 -49.4536 587.268 -56.1812L587.27 -59.5924L559.318 -59.6099L531.365 -59.6273L531.361 -54.0367C531.352 -39.7287 526.509 -21.3492 512.651 15.9757C501.166 47.2377 496.893 61.3535 494.895 75.0918C490.994 101.052 494.205 118.015 512.556 167.963C527.691 209.096 531.188 223.217 531.176 243.589C531.163 263.961 527.648 278.078 512.462 319.192C500.977 350.454 496.704 364.57 494.706 378.308C490.805 404.268 494.016 421.232 512.367 471.179C527.502 512.312 530.999 526.433 530.987 546.805C530.974 567.178 527.459 581.294 512.273 622.408C493.859 672.333 490.627 689.292 494.496 715.257C496.477 728.998 500.732 743.119 512.178 774.395C527.313 815.528 530.81 829.649 530.798 850.021C530.785 870.394 527.27 884.51 512.084 925.624C506.673 940.403 500.788 957.455 498.984 963.613C493.001 984.361 491.569 1001.51 494.306 1019.42Z" fill="black" fill-opacity="0.06"/>
<path d="M591.907 1013.51C594.644 1031.71 598.52 1045.07 611.102 1079.09C624.25 1114.64 629.166 1133.49 629.157 1147.71L629.154 1153.3L657.106 1153.32L685.059 1153.33L685.061 1149.92C685.065 1143.19 682.044 1126.42 678.924 1115.33C677.127 1109.17 671.263 1092.11 665.871 1077.33C650.736 1036.19 647.239 1022.07 647.252 1001.7C647.264 981.329 650.779 967.213 665.966 926.099C677.45 894.837 681.723 880.721 683.722 866.983C687.623 841.022 684.412 824.059 666.06 774.112C650.925 732.979 647.428 718.858 647.441 698.486C647.453 678.113 650.968 663.997 666.155 622.883C684.568 572.958 687.801 555.999 683.932 530.034C681.95 516.293 677.695 502.172 666.249 470.896C651.114 429.762 647.617 415.642 647.63 395.269C647.643 374.897 651.157 360.781 666.344 319.666C684.757 269.742 687.99 252.783 684.121 226.818C682.14 213.077 677.884 198.956 666.439 167.679C651.303 126.546 647.806 112.425 647.819 92.0531C647.832 71.6808 651.346 57.5644 666.533 16.4502C671.943 1.67175 677.829 -15.3805 679.633 -21.5384C682.767 -32.6228 685.809 -49.3926 685.813 -56.1201L685.816 -59.5314L658.052 -59.5487L630.194 -59.5661L629.62 -50.3752C628.473 -33.7937 624.199 -18.446 609.582 20.7735C595.25 59.235 591.165 77.3307 592.289 97.23C593.32 115.897 597.007 129.829 611.385 168.687C627.088 211.147 630.301 225.268 629.434 248.293C628.663 268.949 625.529 280.602 609.393 323.99C595.061 362.451 590.976 380.547 592.1 400.446C593.131 419.114 596.818 433.045 611.196 471.903C626.899 514.364 630.112 528.484 629.245 551.509C628.474 572.165 625.34 583.818 609.204 627.206C594.872 665.667 590.786 683.763 591.911 703.662C592.942 722.425 596.534 735.977 611.385 776.162C625.764 815.116 629.355 829.9 629.343 850.082C629.33 870.265 625.72 885.045 611.198 924.264C600.663 952.59 596.011 967.084 593.729 979.022C592.208 986.791 591.058 1007.92 591.907 1013.51Z" fill="black" fill-opacity="0.06"/>
<path d="M690.83 1015.85C693.094 1031.58 696.498 1043.24 709.268 1078.02C722.795 1114.89 727.711 1133.46 727.702 1147.77L727.699 1153.36L755.651 1153.38L783.604 1153.4L783.606 1149.98C783.611 1143.26 780.589 1126.48 777.469 1115.39C775.672 1109.23 769.808 1092.18 764.416 1077.39C749.281 1036.26 745.784 1022.14 745.797 1001.76C745.809 981.391 749.324 967.275 764.511 926.161C782.924 876.236 786.157 859.277 782.288 833.312C780.307 819.571 776.051 805.45 764.605 774.174C749.47 733.041 745.973 718.92 745.986 698.548C745.999 678.175 749.513 664.059 764.7 622.945C783.113 573.02 786.346 556.061 782.477 530.096C780.496 516.355 776.24 502.234 764.795 470.958C749.659 429.825 746.162 415.704 746.175 395.331C746.188 374.959 749.702 360.843 764.889 319.729C776.374 288.467 780.647 274.351 782.645 260.612C786.546 234.652 783.335 217.689 764.984 167.741C749.849 126.608 746.351 112.488 746.364 92.1153C746.377 71.7429 749.892 57.6267 765.078 16.5124C770.488 1.73401 776.374 -15.3182 778.178 -21.4762C781.312 -32.5606 784.354 -49.3304 784.359 -56.058L784.361 -59.4691L756.408 -59.4866L728.455 -59.504L728.452 -53.9134C728.443 -39.6055 723.504 -21.0365 709.931 15.8148C693.416 60.5288 691.136 70.0029 691.122 92.0809C691.108 114.159 693.376 123.636 709.836 168.37C724.782 209.03 728.279 223.435 728.266 243.712C728.253 263.99 724.738 278.39 709.742 319.031C693.226 363.745 690.946 373.219 690.933 395.297C690.919 417.375 693.187 426.852 709.647 471.587C724.593 512.246 728.09 526.651 728.077 546.928C728.064 567.206 724.549 581.606 709.553 622.247C693.037 666.961 690.757 676.435 690.744 698.513C690.73 720.591 692.998 730.068 709.458 774.803C724.403 815.462 727.9 829.867 727.888 850.144C727.875 870.422 724.36 884.823 709.364 925.463C698.353 955.209 695.505 964.02 692.749 977.094C690.563 987.421 689.604 1006.85 690.83 1015.85Z" fill="black" fill-opacity="0.06"/>
<path d="M789.47 1016C792.018 1032.59 795.705 1045.29 807.719 1077.89C821.341 1114.95 826.256 1133.52 826.247 1147.83L826.244 1153.42L854.291 1153.44L882.434 1153.46L881.775 1145.88C880.365 1128.35 876.205 1113.28 863.529 1079.06C847.258 1035.46 844.801 1025.13 844.816 1001.82C844.83 978.515 847.3 968.188 863.625 924.611C878.622 884.444 881.757 871.37 881.77 850.24C881.783 829.109 878.664 816.031 863.718 775.846C847.447 732.248 844.99 721.918 845.005 698.609C845.019 675.299 847.489 664.972 863.814 621.395C878.811 581.228 881.946 568.154 881.959 547.024C881.972 525.893 878.853 512.815 863.907 472.63C847.637 429.032 845.179 418.702 845.194 395.393C845.208 372.083 847.678 361.756 864.004 318.179C879 278.012 882.135 264.938 882.148 243.807C882.161 222.677 879.043 209.599 864.096 169.413C847.826 125.816 845.368 115.486 845.383 92.1763C845.398 68.8666 847.868 58.5397 864.193 14.9626C876.911 -19.2361 881.09 -34.2995 882.522 -51.8283L883.19 -59.4084L855.048 -59.4259L827 -59.4434L826.997 -53.8528C826.988 -39.5448 822.049 -21.0706 808.476 15.8754C795.093 52.253 793.004 59.4531 790.435 76.2232C788.627 87.9717 788.622 96.31 790.415 108.061C792.963 124.834 795.043 132.037 808.381 168.431C823.327 209.185 826.824 223.495 826.811 243.773C826.799 264.05 823.284 278.356 808.287 319.092C794.904 355.469 792.815 362.669 790.246 379.439C788.438 391.188 788.433 399.526 790.226 411.277C792.774 428.05 794.854 435.253 808.192 471.647C823.138 512.401 826.635 526.711 826.622 546.989C826.609 567.267 823.095 581.572 808.098 622.308C794.715 658.685 792.626 665.886 790.057 682.656C788.249 694.404 788.244 702.743 790.037 714.493C792.585 731.267 794.665 738.469 808.003 774.863C822.949 815.617 826.446 829.928 826.433 850.205C826.42 870.483 822.905 884.789 807.909 925.524C802.593 940.113 797.468 954.134 796.708 956.786C789.588 979.049 787.016 1000.27 789.47 1016Z" fill="black" fill-opacity="0.06"/>
</g>
<g clip-path="url(#clip1)">
<path d="M884.02 1016.71C886.757 1034.9 890.634 1048.27 903.215 1082.29C916.364 1117.83 921.279 1136.69 921.27 1150.91L921.267 1156.5L949.219 1156.51L977.172 1156.53L977.174 1153.12C977.178 1146.39 974.157 1129.62 971.037 1118.53C969.24 1112.37 963.376 1095.31 957.984 1080.53C942.849 1039.39 939.352 1025.27 939.365 1004.9C939.377 984.528 942.892 970.411 958.079 929.297C969.563 898.035 973.836 883.919 975.835 870.181C979.736 844.221 976.525 827.257 958.173 777.31C943.038 736.177 939.541 722.056 939.554 701.684C939.566 681.311 943.081 667.195 958.268 626.081C976.681 576.156 979.914 559.197 976.045 533.232C974.064 519.491 969.808 505.37 958.362 474.094C943.227 432.961 939.73 418.84 939.743 398.468C939.756 378.095 943.27 363.979 958.457 322.865C976.87 272.94 980.103 255.981 976.234 230.016C974.253 216.275 969.997 202.154 958.552 170.878C943.416 129.744 939.919 115.624 939.932 95.2513C939.945 74.879 943.459 60.7627 958.646 19.6485C964.056 4.87 969.942 -12.1822 971.746 -18.3402C974.88 -29.4245 977.922 -46.1944 977.926 -52.9219L977.929 -56.3332L950.165 -56.3505L922.307 -56.3678L921.733 -47.1769C920.586 -30.5955 916.312 -15.2478 901.695 23.9717C887.363 62.4333 883.278 80.529 884.402 100.428C885.433 119.096 889.12 133.027 903.498 171.885C919.201 214.346 922.414 228.466 921.547 251.491C920.776 272.147 917.642 283.8 901.506 327.188C887.174 365.65 883.089 383.745 884.213 403.644C885.244 422.312 888.931 436.243 903.309 475.102C919.012 517.562 922.225 531.682 921.358 554.707C920.587 575.363 917.453 587.016 901.317 630.404C886.985 668.866 882.899 686.961 884.024 706.861C885.055 725.623 888.647 739.175 903.498 779.36C917.877 818.314 921.468 833.098 921.456 853.281C921.443 873.463 917.833 888.243 903.311 927.463C892.776 955.788 888.124 970.282 885.842 982.22C884.321 989.989 883.171 1011.12 884.02 1016.71Z" fill="black" fill-opacity="0.06"/>
<path d="M982.943 1019.05C985.207 1034.78 988.611 1046.43 1001.38 1081.22C1014.91 1118.09 1019.82 1136.66 1019.82 1150.97L1019.81 1156.56L1047.76 1156.58L1075.72 1156.59L1075.72 1153.18C1075.72 1146.45 1072.7 1129.68 1069.58 1118.59C1067.79 1112.43 1061.92 1095.37 1056.53 1080.59C1041.39 1039.46 1037.9 1025.33 1037.91 1004.96C1037.92 984.59 1041.44 970.473 1056.62 929.359C1075.04 879.435 1078.27 862.476 1074.4 836.51C1072.42 822.77 1068.16 808.648 1056.72 777.372C1041.58 736.239 1038.09 722.118 1038.1 701.746C1038.11 681.374 1041.63 667.257 1056.81 626.143C1075.23 576.219 1078.46 559.259 1074.59 533.294C1072.61 519.553 1068.35 505.432 1056.91 474.156C1041.77 433.023 1038.28 418.902 1038.29 398.53C1038.3 378.157 1041.82 364.041 1057 322.927C1068.49 291.665 1072.76 277.549 1074.76 263.811C1078.66 237.85 1075.45 220.887 1057.1 170.94C1041.96 129.807 1038.46 115.686 1038.48 95.3136C1038.49 74.9412 1042 60.8249 1057.19 19.7106C1062.6 4.93225 1068.49 -12.12 1070.29 -18.2779C1073.42 -29.3624 1076.47 -46.1321 1076.47 -52.8598L1076.47 -56.2709L1048.52 -56.2883L1020.57 -56.3058L1020.56 -50.7152C1020.56 -36.4072 1015.62 -17.8383 1002.04 19.013C985.529 63.7271 983.249 73.2011 983.235 95.2791C983.221 117.357 985.489 126.834 1001.95 171.569C1016.89 212.228 1020.39 226.633 1020.38 246.91C1020.37 267.188 1016.85 281.589 1001.85 322.229C985.34 366.943 983.059 376.417 983.046 398.495C983.032 420.573 985.3 430.05 1001.76 474.785C1016.71 515.444 1020.2 529.849 1020.19 550.127C1020.18 570.404 1016.66 584.805 1001.67 625.445C985.15 670.159 982.87 679.633 982.857 701.711C982.843 723.789 985.111 733.266 1001.57 778.001C1016.52 818.66 1020.01 833.065 1020 853.343C1019.99 873.62 1016.47 888.021 1001.48 928.661C990.466 958.408 987.618 967.218 984.862 980.293C982.676 990.62 981.717 1010.04 982.943 1019.05Z" fill="black" fill-opacity="0.06"/>
<path d="M1081.58 1019.2C1084.13 1035.79 1087.82 1048.49 1099.83 1081.09C1113.45 1118.15 1118.37 1136.72 1118.36 1151.03L1118.36 1156.62L1146.4 1156.64L1174.55 1156.65L1173.89 1149.07C1172.48 1131.54 1168.32 1116.47 1155.64 1082.26C1139.37 1038.66 1136.91 1028.33 1136.93 1005.02C1136.94 981.713 1139.41 971.387 1155.74 927.809C1170.73 887.643 1173.87 874.568 1173.88 853.438C1173.9 832.308 1170.78 819.23 1155.83 779.044C1139.56 735.447 1137.1 725.117 1137.12 701.807C1137.13 678.497 1139.6 668.17 1155.93 624.593C1170.92 584.426 1174.06 571.352 1174.07 550.222C1174.09 529.091 1170.97 516.013 1156.02 475.828C1139.75 432.23 1137.29 421.9 1137.31 398.591C1137.32 375.281 1139.79 364.954 1156.12 321.377C1171.11 281.21 1174.25 268.136 1174.26 247.006C1174.27 225.875 1171.16 212.797 1156.21 172.612C1139.94 129.014 1137.48 118.684 1137.5 95.3745C1137.51 72.0648 1139.98 61.738 1156.31 18.1609C1169.02 -16.0379 1173.2 -31.1013 1174.64 -48.6301L1175.3 -56.2101L1147.16 -56.2277L1119.11 -56.2452L1119.11 -50.6546C1119.1 -36.3466 1114.16 -17.8724 1100.59 19.0736C1087.21 55.4513 1085.12 62.6514 1082.55 79.4214C1080.74 91.1699 1080.74 99.5083 1082.53 111.259C1085.08 128.032 1087.16 135.235 1100.49 171.629C1115.44 212.383 1118.94 226.694 1118.92 246.971C1118.91 267.249 1115.4 281.555 1100.4 322.29C1087.02 358.667 1084.93 365.868 1082.36 382.638C1080.55 394.386 1080.55 402.725 1082.34 414.475C1084.89 431.249 1086.97 438.451 1100.3 474.846C1115.25 515.6 1118.75 529.91 1118.74 550.187C1118.72 570.465 1115.21 584.771 1100.21 625.506C1086.83 661.884 1084.74 669.084 1082.17 685.854C1080.36 697.602 1080.36 705.941 1082.15 717.692C1084.7 734.465 1086.78 741.667 1100.12 778.062C1115.06 818.816 1118.56 833.126 1118.55 853.404C1118.53 873.681 1115.02 887.987 1100.02 928.722C1094.71 943.311 1089.58 957.332 1088.82 959.984C1081.7 982.247 1079.13 1003.47 1081.58 1019.2Z" fill="black" fill-opacity="0.06"/>
</g>
<defs>
<clipPath id="clip0">
<rect width="1152.91" height="936.827" fill="white" transform="translate(0 1152.91) rotate(-89.9643)"/>
</clipPath>
<clipPath id="clip1">
<rect width="1152.91" height="936.827" fill="white" transform="translate(292.113 1156.1) rotate(-89.9643)"/>
</clipPath>
</defs>
</svg>
