<svg width="86" height="93" viewBox="0 0 86 93" fill="none" xmlns="http://www.w3.org/2000/svg">
<g clip-path="url(#clip0)">
<path d="M73.8832 0.236938C67.1883 0.236938 61.7587 7.03999 61.7587 15.3963C61.7587 23.7443 67.1882 30.5492 73.8832 30.5492C80.5781 30.5492 86.0112 23.7443 86.0112 15.3963C86.0112 7.03999 80.5782 0.236938 73.8832 0.236938ZM35.9651 10.5467L6.44343 10.5499C3.15735 10.5499 0.486572 13.0831 0.486572 16.2036C0.486572 19.3242 3.15735 21.8572 6.44343 21.8572L35.9651 21.8539C39.2512 21.8539 41.9186 19.3209 41.9186 16.2003C41.9186 13.0797 39.2512 10.5467 35.9651 10.5467ZM6.96167 48.4714C6.29262 48.4693 5.60942 48.5769 4.9438 48.8062C1.90107 49.8536 0.330229 53.0469 1.43326 55.9363C6.52017 69.2142 16.5087 79.8365 29.0338 86.2288C31.4858 87.4803 34.0219 88.5657 36.6216 89.4739C43.0094 91.7057 49.8992 92.9092 57.0318 92.9094C63.2753 92.9094 69.4449 91.9798 75.3102 90.1728C76.4539 89.8204 77.5832 89.4366 78.6963 89.021C79.9148 88.5659 81.0316 88.1155 82.041 87.6692L82.0306 87.6494L82.0859 87.6264L82.0893 87.6232C85.0052 86.2989 86.2376 82.9799 84.8431 80.2108C83.457 77.4582 79.9948 76.2858 77.0896 77.5727L77.0826 77.5529C76.1169 77.9799 75.229 78.3455 74.4255 78.6456C73.5163 78.985 72.6013 79.2976 71.682 79.5807C66.9385 81.0421 61.9938 81.7923 57.0317 81.7923C51.3612 81.7922 45.8321 80.8168 40.6606 79.0098C38.5558 78.2744 36.5277 77.4099 34.5898 76.4209C24.5376 71.2909 16.5257 62.7758 12.4519 52.1429C11.5903 49.8856 9.35105 48.4786 6.96156 48.4712L6.96167 48.4714Z" fill="#FFB344"/>
</g>
<defs>
<clipPath id="clip0">
<rect width="86" height="93" fill="white"/>
</clipPath>
</defs>
</svg>
