<svg width="105" height="117" viewBox="0 0 105 117" fill="none" xmlns="http://www.w3.org/2000/svg">
<g filter="url(#filter0_d)">
<path d="M50.9057 0.411453C50.7511 0.430862 50.1423 0.498779 49.5529 0.556999C46.2774 0.886894 42.4028 1.87658 38.9051 3.26408L37.6296 3.76862L36.9919 3.18645C35.0112 1.37203 32.1608 1.00333 29.7645 2.26469C28.8853 2.73042 27.8224 3.76862 27.3489 4.63217C26.6726 5.85472 26.431 7.52361 26.7499 8.84319C26.8272 9.16338 26.8852 9.45446 26.8948 9.49327C26.8948 9.52238 26.4117 9.89108 25.8223 10.2986C18.2374 15.5672 13.4932 22.6891 11.8313 31.3052C11.0873 35.1669 10.9327 40.6004 11.4834 43.3075C11.6477 44.1323 12.353 45.4421 14.015 48.0716C14.8266 49.3427 14.8266 49.3524 14.7106 49.7211C14.3821 50.7302 13.4256 52.2923 12.1405 53.9127C11.2612 55.0188 8.32385 58.0267 6.65227 59.5112C5.27056 60.7531 4.86475 61.2383 4.86475 61.6749C4.86475 62.3347 5.45415 64.3238 5.94692 65.3135C6.58464 66.5748 7.82141 68.3407 9.28042 70.0387C9.7732 70.6209 10.179 71.106 10.179 71.1351C10.179 71.1642 9.96645 71.5621 9.6959 72.0278C8.96157 73.3183 9.04853 73.7549 10.295 74.8804C11.4061 75.8895 14.2855 78.6645 14.3145 78.7615C14.3338 78.81 14.0923 79.1399 13.7637 79.4892C13.126 80.1878 12.9328 80.6245 13.0197 81.1193C13.0584 81.3037 13.3869 81.9149 13.7637 82.4971C15.9571 85.8931 17.2808 90.5407 17.9572 97.2842C18.1311 98.9725 18.2084 99.3024 18.5466 99.7099C19.0297 100.273 19.3485 100.321 22.2762 100.263C23.7546 100.234 25.3972 100.146 26.0059 100.059C30.6921 99.4285 34.6343 98.2156 39.0693 96.0616L40.9535 95.1399L41.1757 95.4115C41.2917 95.5571 41.8617 96.3818 42.4415 97.2357C44.258 99.9233 44.8281 100.913 46.7605 104.707C47.5722 106.308 48.3645 107.841 48.5094 108.122L48.7896 108.627L48.9539 106.085C49.0795 104.144 49.0988 103.455 49.0118 103.154C48.7606 102.223 46.8861 98.9142 45.0986 96.2169C42.77 92.7045 42.1613 92.0447 41.282 92.0447C40.8762 92.0447 40.567 92.1708 39.05 92.9567C34.644 95.2466 30.4989 96.6147 26.1218 97.2357C25.5614 97.3133 24.1797 97.4297 23.0492 97.4879C21.3003 97.585 20.9718 97.585 20.8655 97.4685C20.7979 97.3909 20.6723 96.6632 20.5757 95.7899C20.1119 91.4237 19.0587 87.038 17.7639 84.0593C17.3871 83.2054 16.7494 81.9926 16.2469 81.1775C16.1407 81.0126 16.2083 80.9059 16.8653 80.2267C18.305 78.7518 18.2181 78.5869 14.1889 74.7349C13.2323 73.8228 12.44 73.0272 12.4207 72.9593C12.4013 72.8913 12.5753 72.6488 12.8168 72.4256C13.3579 71.892 13.4642 71.6785 13.4642 71.1642C13.4642 70.6306 13.3289 70.4268 12.0149 68.952C9.93746 66.6233 8.45913 64.4305 8.005 63.0333L7.7731 62.3056L8.75866 61.3935C9.29975 60.889 10.5462 59.6664 11.5317 58.6767C14.2758 55.892 15.6672 54.1067 16.7011 52.0206C17.3581 50.6816 17.619 49.8666 17.619 49.0904C17.619 48.5761 17.6093 48.5567 16.2856 46.4609C15.8991 45.8594 15.2517 44.7823 14.8459 44.0837L14.1116 42.803L14.0343 41.6871C13.2323 29.4422 17.3581 20.0208 26.5083 13.2385C27.117 12.7825 27.8031 12.2974 28.0253 12.1518L28.4311 11.8802L28.9432 12.2683C31.1269 13.908 34.2768 13.9663 36.3542 12.4041C36.6634 12.1712 36.7021 12.1615 37.1755 12.2877C37.8809 12.4623 40.1032 13.2968 41.34 13.8498C42.6637 14.4514 44.2483 15.3344 45.4464 16.1397L46.3644 16.7607L46.3354 17.8474C46.2967 19.1961 46.4707 20.1081 46.9828 21.1657C47.4079 22.0487 48.1229 23.0481 48.5964 23.4071L48.9152 23.6594L48.0359 24.6393C45.2049 27.8121 41.4366 33.0226 37.4847 39.242C36.9243 40.1153 36.6827 40.4161 36.5668 40.387C35.5426 40.0765 34.2575 40.0571 33.0594 40.3385C32.2574 40.5228 32.1704 40.5325 31.8902 40.3967C31.7163 40.3093 31.1172 40.028 30.5375 39.7563C28.7596 38.9219 26.9238 37.6023 25.7933 36.3312L25.2715 35.7393L25.4938 35.2445C26.1025 33.857 26.0735 32.3142 25.4165 30.917C25.059 30.1505 24.0734 29.122 23.3487 28.7436C21.5032 27.8121 19.3775 28.0838 17.8799 29.4616C16.4499 30.7812 15.9088 32.7897 16.4982 34.6526C17.1939 36.8649 19.1263 38.2038 21.3873 38.068C21.8511 38.0389 22.4212 37.9419 22.6917 37.8351L23.1748 37.6411L24.3826 38.8151C25.7933 40.1832 27.0011 41.0759 28.4988 41.8521L29.5713 42.4052L29.1944 42.9291C27.977 44.5786 27.5035 46.7714 27.9094 48.8478C28.1413 50.0219 28.8949 51.4579 29.7452 52.3117C30.1124 52.6901 30.5665 53.1073 30.7501 53.2432C31.0303 53.4566 31.0593 53.5149 30.9723 53.6895C30.9143 53.7962 30.7694 54.3105 30.6535 54.8344C30.2283 56.8332 29.407 58.7447 28.1992 60.5591C27.2523 61.9854 26.6629 62.6452 26.3247 62.6452C25.8899 62.6452 24.9527 62.9266 24.286 63.2468C23.455 63.6543 22.4115 64.7022 21.996 65.5657C20.3341 68.952 22.2859 72.8331 25.9672 73.4735C26.9141 73.6385 27.7354 73.5608 28.7017 73.2212C30.7791 72.4935 32.3057 70.3201 32.3057 68.0788C32.3057 66.439 31.4361 64.741 30.0544 63.6543L29.6872 63.3729L30.4892 62.16C32.0158 59.8605 33.098 57.2116 33.5038 54.7859L33.5618 54.4463L34.4797 54.4754C36.5475 54.5531 38.4509 53.7283 39.881 52.1565C40.5187 51.4482 41.2144 50.1383 41.4463 49.2165L41.6105 48.5567L42.1516 48.6246C44.4319 48.906 46.4127 48.8381 48.0263 48.4306C48.7896 48.2365 48.9829 48.2171 49.0408 48.3239C49.2051 48.6149 49.8718 49.3621 50.2293 49.6434C50.9926 50.2547 52.1811 50.7108 53.0024 50.7108C53.3212 50.7108 53.3695 50.7496 53.4275 50.9727C53.4662 51.128 53.6981 51.6616 53.9493 52.1662C55.4566 55.2031 56.5871 58.473 57.1862 61.51L57.447 62.8489L56.9639 63.3632C54.9638 65.4784 54.4614 68.5251 55.6788 71.1351L55.9494 71.727L55.1667 72.3868C53.6401 73.6676 51.4081 75.8119 49.7752 77.5681C48.5964 78.8295 48.0746 79.3243 47.9683 79.2855C47.0504 78.9265 45.5914 78.8489 44.6252 79.0914C43.7555 79.3146 42.9053 79.79 42.2096 80.4207C39.6974 82.73 39.6104 86.5917 42.0067 88.9786C42.799 89.7742 43.572 90.2205 44.6348 90.4922C47.4852 91.2296 50.4225 89.5704 51.3791 86.6887C51.9685 84.9228 51.7076 82.9337 50.6738 81.4298L50.3742 81.0029L51.1182 80.1878C53.041 78.092 55.1377 76.0545 56.9736 74.4923L57.8142 73.7743L58.5775 74.1721C60.3264 75.0648 62.2975 75.0939 64.2107 74.2497C64.3363 74.1915 64.5295 74.3953 65.1093 75.2297C67.3026 78.3152 69.4766 81.8761 70.9163 84.7288L71.9019 86.6887L71.5154 87.1545C70.6747 88.1635 70.211 89.6675 70.3269 90.9774C70.4428 92.4134 71.0033 93.5583 72.0661 94.5577C74.0372 96.4012 77.1098 96.4303 79.0616 94.6062C79.8056 93.9173 80.2598 93.2284 80.5786 92.2775C81.0811 90.8124 80.8588 88.9689 80.0375 87.6784C79.6414 87.0574 78.6075 86.0968 78.0278 85.7961C77.0422 85.2915 75.7185 85.0878 74.6749 85.2721L74.2884 85.34L73.8053 84.3018C72.4333 81.3716 69.6409 76.7628 66.8871 72.9107L66.491 72.3674L66.8871 71.6979C67.3219 70.9896 67.6988 69.8932 67.8147 69.0781L67.8823 68.5736L68.4717 68.5251C68.8003 68.496 69.5926 68.4475 70.2303 68.4184C72.2884 68.3213 75.2064 67.9235 77.564 67.4384C78.192 67.3025 78.7621 67.2152 78.8297 67.2443C78.8974 67.2637 78.9747 67.4384 79.0133 67.6227C79.1969 68.6027 80.2598 69.9805 81.2646 70.5239C82.3178 71.106 83.5933 71.2322 84.7334 70.8829C87.5645 69.9999 88.8882 66.701 87.5065 63.9648C87.1683 63.2856 86.1055 62.2571 85.4388 61.9369C83.2261 60.8987 80.7139 61.6943 79.4578 63.8386C79.2162 64.2462 79.1776 64.2559 77.0905 64.6828C74.3271 65.2455 71.641 65.5851 68.9548 65.7113L67.4958 65.7792L67.235 65.2552C66.5103 63.8289 65.5151 62.7907 64.2686 62.16C63.2154 61.6361 62.2782 61.442 61.0414 61.51C59.9206 61.5585 60.0269 61.6458 59.8433 60.6561C59.3215 57.9393 58.1427 54.5045 56.6837 51.4676L55.9494 49.9345L56.2296 49.7211C57.2924 48.9157 58.0075 47.635 58.1814 46.2669L58.249 45.7235L59.3119 45.3548C60.9641 44.7823 61.8144 44.433 63.2734 43.7247C64.945 42.9194 66.1335 42.2014 67.5635 41.1244L68.6553 40.2997L68.9065 40.6295C69.9114 41.9685 71.6893 43.1329 73.4188 43.5889C74.3561 43.8412 76.4335 43.8412 77.3804 43.5889C78.279 43.356 79.6607 42.6865 80.3564 42.1432L80.9265 41.6969L81.7091 42.3857C83.4773 43.9188 85.8156 45.4033 88.4727 46.6841C89.8834 47.3633 90.0863 47.4894 90.0863 47.6932C90.0863 48.1007 90.3859 49.0807 90.6854 49.6823C91.0526 50.4197 92.0768 51.4385 92.7918 51.7975C94.7919 52.7969 97.0432 52.4476 98.5892 50.9048C99.6134 49.886 100.135 48.6441 100.135 47.2177C100.135 45.0249 98.7244 42.9873 96.763 42.3566L96.1059 42.1432L96.048 40.1929C95.7774 31.1499 92.3376 22.8637 85.4677 14.7134C84.9556 14.1021 83.6416 12.6952 82.5497 11.5794L80.5786 9.56119L80.5979 8.76556C80.6462 7.31014 80.1825 6.1167 79.1776 5.09791C78.308 4.22466 77.3128 3.73952 76.076 3.60368C75.0808 3.48724 73.5348 3.95297 72.6942 4.62247L72.3173 4.92326L71.1675 4.3896C66.9064 2.41023 62.9449 1.23619 58.2973 0.586105C57.2441 0.440559 51.669 0.304726 50.9057 0.411453ZM55.6402 3.16705C58.2393 3.33199 60.2008 3.64249 62.7903 4.30228C65.0416 4.87474 68.4911 6.14581 70.2979 7.05787L70.839 7.32955L70.7907 8.23191C70.7327 9.2507 70.8777 9.99782 71.3125 10.8905C71.6217 11.5212 72.4236 12.4332 72.9647 12.7728C73.4188 13.0445 73.3995 12.996 73.7957 15.3926C74.3368 18.6139 74.6073 21.4374 74.6943 24.5811L74.7522 26.9292L74.472 26.9777C73.5058 27.1718 72.4719 27.4629 71.9502 27.7054C69.2061 28.9959 67.3799 31.6933 67.1383 34.8176C67.0804 35.5356 67.148 36.4573 67.3412 37.3791C67.3992 37.6702 67.3509 37.7187 66.5393 38.3882C64.4619 40.1153 61.882 41.5125 58.6742 42.638L57.5437 43.0358L57.1282 42.5119C54.4711 39.1644 49.2148 40.5034 48.4224 44.7338C48.3065 45.3548 48.2678 45.413 47.978 45.5392C46.6929 46.0728 43.6396 46.1504 41.7071 45.6944C41.5622 45.6653 41.4752 45.5295 41.3883 45.1996C41.195 44.4136 40.4414 43.0941 39.794 42.3857L39.1853 41.726L40.7506 39.3003C44.6348 33.3136 47.5142 29.384 50.3452 26.2403C50.9057 25.6193 51.4178 25.0857 51.4854 25.0566C51.553 25.0371 51.7753 25.0566 51.9782 25.1051C52.1907 25.1439 52.7512 25.1924 53.2343 25.1924C56.2006 25.2021 58.8384 23.2906 59.7853 20.438C61.0414 16.6442 59.051 12.5788 55.3407 11.3562C54.558 11.1039 54.3648 11.0748 53.1763 11.0748C52.0072 11.0845 51.7946 11.1136 51.0989 11.3562C49.8331 11.7928 48.6833 12.5885 47.92 13.5393L47.4659 14.1118L46.2581 13.3453C44.229 12.0742 42.0743 11.036 39.6974 10.1919C39.0597 9.96871 38.5379 9.74554 38.5379 9.70673C38.5476 9.65822 38.6249 9.27981 38.7215 8.85289C38.8568 8.29012 38.8857 7.8632 38.8568 7.19371L38.8084 6.29135L39.9776 5.83532C44.4802 4.06941 48.8476 3.16705 53.3695 3.08942C53.7657 3.07972 54.7899 3.11854 55.6402 3.16705ZM33.8903 4.47693C34.7793 4.79712 35.6295 5.62186 35.9387 6.4757C36.1416 7.03847 36.1416 7.96993 35.9291 8.59091C35.7262 9.20219 35.0112 10.0172 34.3638 10.3665C33.0594 11.0845 31.3491 10.8129 30.2766 9.72614C29.349 8.78497 29.1171 7.33925 29.6969 6.1167C29.9771 5.55394 30.837 4.77771 31.4651 4.53514C32.0641 4.30228 33.3203 4.27317 33.8903 4.47693ZM76.2982 6.4757C76.7717 6.60184 77.4094 7.18401 77.6316 7.67885C77.8635 8.1834 77.8635 9.01784 77.6316 9.52238C77.0132 10.8711 75.39 11.2398 74.3174 10.2695C73.8053 9.80376 73.5638 9.27981 73.5638 8.60062C73.5638 7.11609 74.8972 6.07789 76.2982 6.4757ZM80.8878 13.811C84.0281 17.1197 86.1731 19.8753 88.0669 23.0287C91.4874 28.7436 93.2749 34.8661 93.2749 40.8139L93.2652 42.4149L92.8787 42.5895C92.3087 42.8612 91.584 43.4725 91.1202 44.074C90.898 44.3651 90.6564 44.598 90.5888 44.598C90.3859 44.598 87.5935 43.1329 86.5306 42.4634C85.4677 41.7939 83.8735 40.6198 83.0908 39.9115C82.627 39.504 82.6174 39.4846 82.772 39.2517C83.0522 38.8151 83.516 37.2627 83.6319 36.3215C84.057 32.9449 82.2115 29.4616 79.1679 27.8704C78.8201 27.6957 78.3176 27.4725 78.0471 27.3852L77.5543 27.2203L77.4963 24.9207C77.4094 21.6024 77.0809 18.2064 76.5591 15.0918C76.2982 13.5393 76.2885 13.5781 76.762 13.5005C77.2741 13.4132 78.5785 12.7534 78.878 12.4332C79.0037 12.2974 79.1582 12.1907 79.2259 12.1907C79.2935 12.1907 80.0375 12.9184 80.8878 13.811ZM55.0315 14.2573C56.2779 14.8686 57.1089 16.033 57.3504 17.469C57.5727 18.808 57.0219 20.3798 56.0267 21.2919C53.9203 23.2227 50.7317 22.6017 49.5046 20.0208C48.3548 17.6242 49.5529 14.8007 52.0651 13.9663C52.3067 13.8886 52.7995 13.8498 53.3792 13.8692C54.2295 13.8886 54.3744 13.9275 55.0315 14.2573ZM76.5784 29.8594C78.3949 30.2378 80.0955 31.8291 80.6752 33.7017C80.7525 33.954 80.8395 34.5168 80.8781 34.9437C81.0038 36.6708 80.4433 38.1941 79.2259 39.407C78.1147 40.5131 76.9359 41.0079 75.3996 41.0079C73.8633 41.0079 72.6845 40.5131 71.583 39.407C70.1337 37.9613 69.5829 35.9528 70.0853 33.9831C70.3559 32.9158 70.8004 32.1396 71.583 31.3537C72.3077 30.626 73.1096 30.1505 74.0469 29.908C74.6943 29.7333 75.8827 29.7139 76.5784 29.8594ZM22.2279 31.3343C23.4454 32.1784 23.4357 34.119 22.2279 34.9631C21.8801 35.2057 21.7545 35.2348 21.0974 35.2348C20.4404 35.2348 20.3148 35.2057 19.9669 34.9631C18.8558 34.1869 18.7398 32.4598 19.7254 31.5186C20.1505 31.1305 20.508 31.0044 21.2037 31.0432C21.7158 31.0626 21.9187 31.1208 22.2279 31.3343ZM36.4702 43.3172C39.1466 44.6368 39.736 48.3627 37.6103 50.4973C35.5909 52.5252 32.2767 51.9236 30.9916 49.3038C29.8225 46.8878 31.0206 43.8897 33.4942 43.0844C33.7551 42.997 34.2478 42.9582 34.8759 42.9776C35.7455 42.997 35.9097 43.0358 36.4702 43.3172ZM54.1908 43.618C54.9445 43.9576 55.418 44.7532 55.418 45.6653C55.418 46.9655 54.529 47.8969 53.2729 47.8969C52.0168 47.8969 51.1279 46.9655 51.1279 45.6653C51.1279 44.3651 52.0168 43.4337 53.2729 43.4337C53.5821 43.4337 53.9686 43.5113 54.1908 43.618ZM96.0286 45.0734C96.8499 45.4518 97.3524 46.2766 97.3524 47.2177C97.3524 48.547 96.3862 49.5464 95.1107 49.5464C93.8353 49.5464 92.8691 48.547 92.8691 47.2177C92.8691 45.8885 93.8353 44.8891 95.1107 44.8891C95.4296 44.8891 95.7968 44.9667 96.0286 45.0734ZM62.6937 64.4984C63.4473 64.7798 64.2976 65.5948 64.7034 66.4196C64.9933 67.0309 65.0126 67.1182 65.0126 68.1758C65.0126 69.2431 64.9933 69.3207 64.6938 69.9417C63.5923 72.183 60.8868 72.7846 59.1283 71.1739C58.8384 70.912 58.4906 70.5045 58.365 70.2813C57.6403 69.0393 57.6403 67.3122 58.365 66.0703C58.7031 65.4784 59.5631 64.7313 60.1622 64.4984C60.8578 64.2267 61.9787 64.2267 62.6937 64.4984ZM84.2986 64.5081C84.5015 64.6246 84.7914 64.8865 84.9363 65.1C85.1779 65.4493 85.2069 65.5754 85.2069 66.2837C85.2069 66.992 85.1779 67.1182 84.9363 67.4675C83.9991 68.8259 82.0376 68.3989 81.6705 66.7592C81.4675 65.8374 81.9313 64.7604 82.685 64.4305C83.1488 64.2267 83.8638 64.2656 84.2986 64.5081ZM27.9867 65.6725C28.8563 66.0509 29.5036 67.0697 29.5036 68.0788C29.5036 68.8065 29.2428 69.4274 28.6823 69.9902C27.9287 70.747 27.0784 70.9508 26.0349 70.6403C24.9624 70.3201 24.1894 69.2528 24.1894 68.0788C24.1894 66.0994 26.1122 64.8768 27.9867 65.6725ZM47.234 82.0023C47.7557 82.2642 48.3451 82.8755 48.635 83.4577C48.9829 84.1757 48.9829 85.3788 48.6254 86.1357C47.978 87.5232 46.4417 88.2024 45.0213 87.7172C44.4029 87.5038 43.6009 86.7469 43.3111 86.1066C42.9826 85.3497 42.9826 84.2436 43.3304 83.5062C43.6879 82.7494 44.0164 82.4001 44.7025 82.0508C45.2532 81.7694 45.3692 81.75 46.0745 81.7791C46.5866 81.7985 46.9828 81.8761 47.234 82.0023ZM76.3272 88.115C76.9456 88.2994 77.419 88.6972 77.7669 89.3376C78.2983 90.3176 78.1147 91.6371 77.3321 92.4134C76.3175 93.4322 74.8585 93.4322 73.844 92.4134C72.8294 91.3946 72.8294 89.7645 73.844 88.7457C74.559 88.0277 75.361 87.8239 76.3272 88.115Z" fill="#FFB344"/>
</g>
<defs>
<filter id="filter0_d" x="0.864746" y="0.37326" width="103.271" height="116.253" filterUnits="userSpaceOnUse" color-interpolation-filters="sRGB">
<feFlood flood-opacity="0" result="BackgroundImageFix"/>
<feColorMatrix in="SourceAlpha" type="matrix" values="0 0 0 0 0 0 0 0 0 0 0 0 0 0 0 0 0 0 127 0" result="hardAlpha"/>
<feOffset dy="4"/>
<feGaussianBlur stdDeviation="2"/>
<feComposite in2="hardAlpha" operator="out"/>
<feColorMatrix type="matrix" values="0 0 0 0 0 0 0 0 0 0 0 0 0 0 0 0 0 0 0.25 0"/>
<feBlend mode="normal" in2="BackgroundImageFix" result="effect1_dropShadow"/>
<feBlend mode="normal" in="SourceGraphic" in2="effect1_dropShadow" result="shape"/>
</filter>
</defs>
</svg>
