<svg width="230" height="262" viewBox="0 0 230 262" fill="none" xmlns="http://www.w3.org/2000/svg">
<path d="M111.151 0.0921696C110.778 0.139018 109.308 0.302988 107.885 0.443534C99.9777 1.23996 90.6237 3.62924 82.1795 6.97892L79.1004 8.19698L77.5609 6.79152C72.7789 2.41118 65.8976 1.52105 60.1126 4.56621C57.9899 5.69058 55.4239 8.19698 54.2809 10.2817C52.6481 13.2332 52.0649 17.2622 52.8347 20.4479C53.0213 21.2209 53.1613 21.9236 53.1846 22.0173C53.1846 22.0876 52.0183 22.9777 50.5953 23.9615C32.284 36.6809 20.8306 53.8744 16.8185 74.6752C15.0223 83.9981 14.6491 97.1157 15.9787 103.651C16.3753 105.642 18.0781 108.804 22.0903 115.152C24.0497 118.221 24.0497 118.244 23.7698 119.135C22.9767 121.571 20.6673 125.342 17.5649 129.254C15.4422 131.924 8.35091 139.186 4.31542 142.77C0.979716 145.768 0 146.939 0 147.993C0 149.586 1.42292 154.388 2.61258 156.777C4.15213 159.823 7.13793 164.086 10.6602 168.185C11.8499 169.59 12.8296 170.762 12.8296 170.832C12.8296 170.902 12.3164 171.863 11.6633 172.987C9.89047 176.102 10.1004 177.157 13.1095 179.874C15.7921 182.31 22.7434 189.009 22.8134 189.243C22.86 189.361 22.2769 190.157 21.4838 191C19.9442 192.687 19.4777 193.741 19.6876 194.936C19.7809 195.381 20.574 196.856 21.4838 198.262C26.7789 206.46 29.9746 217.681 31.6075 233.96C32.0274 238.036 32.214 238.833 33.0304 239.817C34.1968 241.175 34.9665 241.292 42.0345 241.152C45.6034 241.081 49.569 240.871 51.0385 240.66C62.3519 239.137 71.8692 236.209 82.5761 231.009L87.1247 228.784L87.6613 229.44C87.9412 229.791 89.3174 231.782 90.717 233.843C95.1024 240.332 96.4787 242.721 101.144 251.88C103.103 255.745 105.016 259.446 105.366 260.125L106.043 261.344L106.439 255.206C106.742 250.521 106.789 248.858 106.579 248.132C105.973 245.883 101.447 237.896 97.1318 231.384C91.5101 222.904 90.0406 221.311 87.9178 221.311C86.9381 221.311 86.1917 221.616 82.5294 223.513C71.8925 229.041 61.8854 232.344 51.3185 233.843C49.9655 234.031 46.6298 234.312 43.9006 234.452C39.6785 234.687 38.8854 234.687 38.6288 234.406C38.4655 234.218 38.1623 232.461 37.929 230.353C36.8093 219.812 34.2667 209.224 31.141 202.033C30.2312 199.972 28.6917 197.044 27.4787 195.076C27.2221 194.678 27.3854 194.42 28.9716 192.781C32.4473 189.22 32.2373 188.822 22.5101 179.522C20.2008 177.321 18.288 175.4 18.2414 175.236C18.1947 175.072 18.6146 174.486 19.1978 173.947C20.5041 172.659 20.7606 172.144 20.7606 170.902C20.7606 169.614 20.4341 169.122 17.2617 165.561C12.2465 159.94 8.67748 154.646 7.58114 151.273L7.0213 149.516L9.40061 147.314C10.7069 146.096 13.716 143.144 16.0953 140.755C22.7201 134.032 26.0791 129.722 28.5751 124.686C30.1613 121.454 30.7911 119.486 30.7911 117.612C30.7911 116.37 30.7677 116.324 27.572 111.264C26.6389 109.812 25.0761 107.212 24.0963 105.525L22.3235 102.433L22.1369 99.7392C20.2008 70.1777 30.1613 47.4327 52.2515 31.0591C53.7211 29.9582 55.3773 28.787 55.9138 28.4356L56.8935 27.7797L58.1298 28.7167C63.4016 32.6754 71.0061 32.8159 76.0213 29.0446C76.7677 28.4824 76.8611 28.459 78.0041 28.7635C79.7069 29.1852 85.072 31.1997 88.0578 32.5348C91.2535 33.9871 95.0791 36.1188 97.9716 38.063L100.188 39.5621L100.118 42.1857C100.024 45.4416 100.444 47.6435 101.681 50.1968C102.707 52.3284 104.433 54.7411 105.576 55.6078L106.346 56.2168L104.223 58.5827C97.3884 66.2424 88.2911 78.8213 78.7505 93.8363C77.3976 95.9444 76.8144 96.6706 76.5345 96.6003C74.0619 95.8508 70.9594 95.8039 68.0669 96.4832C66.1308 96.9283 65.9209 96.9517 65.2444 96.6238C64.8245 96.4129 63.3783 95.7336 61.9787 95.0777C57.6866 93.0633 53.2546 89.8776 50.5254 86.809L49.2657 85.3801L49.8022 84.1854C51.2718 80.8358 51.2018 77.1113 49.6156 73.7382C48.7525 71.8877 46.3732 69.4047 44.6237 68.4912C40.1684 66.2424 35.0365 66.8983 31.4209 70.2246C27.9686 73.4103 26.6623 78.2591 28.0852 82.7566C29.7647 88.0973 34.43 91.3299 39.8884 91.0019C41.0081 90.9316 42.3844 90.6974 43.0375 90.4397L44.2039 89.9712L47.1197 92.8056C50.5254 96.1084 53.4412 98.2635 57.0568 100.137L59.646 101.473L58.7363 102.737C55.7972 106.72 54.6542 112.014 55.6339 117.026C56.1937 119.861 58.0132 123.327 60.0659 125.389C60.9523 126.302 62.0487 127.31 62.4919 127.638C63.1684 128.153 63.2383 128.293 63.0284 128.715C62.8884 128.973 62.5385 130.214 62.2586 131.479C61.2323 136.305 59.2495 140.919 56.3337 145.299C54.0477 148.743 52.6247 150.336 51.8083 150.336C50.7586 150.336 48.4959 151.015 46.8864 151.788C44.8803 152.772 42.3611 155.302 41.358 157.386C37.3458 165.561 42.0578 174.931 50.9452 176.477C53.2312 176.875 55.214 176.688 57.5467 175.868C62.5619 174.111 66.2475 168.864 66.2475 163.453C66.2475 159.495 64.1481 155.395 60.8124 152.772L59.926 152.093L61.8621 149.164C65.5477 143.613 68.1602 137.218 69.14 131.362L69.2799 130.542L71.4959 130.612C76.4878 130.8 81.0832 128.809 84.5355 125.014C86.0751 123.304 87.7546 120.142 88.3144 117.916L88.711 116.324L90.0172 116.488C95.5223 117.167 100.304 117.003 104.2 116.019C106.043 115.551 106.509 115.504 106.649 115.761C107.046 116.464 108.655 118.268 109.518 118.947C111.361 120.423 114.23 121.524 116.213 121.524C116.983 121.524 117.099 121.617 117.239 122.156C117.333 122.531 117.892 123.819 118.499 125.037C122.138 132.369 124.867 140.263 126.313 147.595L126.943 150.828L125.777 152.069C120.948 157.176 119.735 164.531 122.674 170.832L123.328 172.261L121.438 173.854C117.753 176.946 112.364 182.122 108.422 186.362C105.576 189.407 104.316 190.602 104.06 190.508C101.844 189.642 98.3215 189.454 95.9888 190.04C93.8895 190.579 91.8367 191.726 90.1572 193.249C84.0923 198.824 83.8824 208.147 89.6673 213.909C91.5801 215.83 93.4462 216.908 96.0122 217.563C102.894 219.344 109.985 215.338 112.294 208.381C113.717 204.118 113.087 199.316 110.591 195.685L109.868 194.654L111.664 192.687C116.306 187.627 121.368 182.708 125.8 178.937L127.83 177.203L129.672 178.164C133.895 180.319 138.653 180.389 143.272 178.351C143.575 178.211 144.042 178.703 145.441 180.717C150.736 188.166 155.985 196.763 159.46 203.649L161.84 208.381L160.907 209.506C158.877 211.942 157.758 215.572 158.038 218.735C158.317 222.201 159.67 224.966 162.236 227.378C166.995 231.829 174.413 231.899 179.125 227.495C180.921 225.832 182.017 224.169 182.787 221.874C184 218.336 183.463 213.886 181.481 210.77C180.524 209.271 178.028 206.952 176.629 206.226C174.249 205.008 171.054 204.516 168.534 204.961L167.601 205.125L166.435 202.619C163.123 195.545 156.381 184.418 149.733 175.119L148.777 173.807L149.733 172.191C150.783 170.481 151.693 167.834 151.973 165.866L152.136 164.648L153.559 164.531C154.352 164.461 156.265 164.343 157.804 164.273C162.773 164.039 169.817 163.079 175.509 161.907C177.025 161.579 178.402 161.369 178.565 161.439C178.728 161.486 178.915 161.907 179.008 162.352C179.451 164.718 182.017 168.044 184.443 169.356C186.986 170.762 190.065 171.066 192.817 170.223C199.652 168.091 202.848 160.127 199.512 153.521C198.696 151.882 196.13 149.399 194.52 148.626C189.178 146.119 183.114 148.04 180.081 153.217C179.498 154.201 179.405 154.224 174.366 155.255C167.695 156.613 161.21 157.433 154.725 157.738L151.203 157.902L150.573 156.637C148.824 153.193 146.421 150.687 143.412 149.164C140.869 147.9 138.606 147.431 135.621 147.595C132.915 147.712 133.171 147.923 132.728 145.534C131.469 138.975 128.623 130.683 125.1 123.351L123.328 119.65L124.004 119.135C126.57 117.19 128.296 114.098 128.716 110.795L128.879 109.484L131.445 108.594C135.434 107.212 137.487 106.368 141.009 104.658C145.045 102.714 147.914 100.981 151.366 98.3806L154.002 96.3895L154.609 97.1859C157.034 100.418 161.327 103.229 165.502 104.33C167.765 104.939 172.78 104.939 175.066 104.33C177.235 103.768 180.571 102.152 182.251 100.84L183.627 99.7626L185.516 101.426C189.785 105.127 195.43 108.711 201.845 111.803C205.251 113.442 205.74 113.747 205.74 114.239C205.74 115.223 206.463 117.589 207.187 119.041C208.073 120.821 210.546 123.281 212.272 124.147C217.1 126.56 222.535 125.717 226.268 121.992C228.74 119.533 230 116.534 230 113.091C230 107.797 226.594 102.878 221.859 101.355L220.273 100.84L220.133 96.1318C219.48 74.3004 211.175 54.296 194.59 34.6196C193.354 33.1439 190.182 29.7473 187.546 27.0536L182.787 22.1813L182.834 20.2605C182.95 16.7469 181.831 13.8657 179.405 11.4061C177.305 9.29792 174.903 8.12671 171.917 7.79877C169.514 7.51768 165.782 8.64204 163.753 10.2583L162.843 10.9845L160.067 9.69614C149.78 4.91758 140.216 2.08324 128.996 0.513807C126.453 0.162443 112.994 -0.165498 111.151 0.0921696ZM122.581 6.74467C128.856 7.14289 133.591 7.89247 139.843 9.48532C145.278 10.8674 153.605 13.9359 157.968 16.1378L159.274 16.7937L159.157 18.9722C159.017 21.4317 159.367 23.2354 160.417 25.3904C161.163 26.913 163.099 29.1149 164.406 29.9347C165.502 30.5906 165.455 30.4735 166.412 36.2593C167.718 44.0362 168.371 50.8527 168.581 58.4421L168.721 64.1108L168.045 64.2279C165.712 64.6964 163.216 65.3991 161.956 65.9848C155.332 69.1002 150.923 75.6121 150.34 83.1548C150.2 84.8882 150.363 87.1135 150.83 89.3388C150.97 90.0415 150.853 90.1586 148.894 91.7749C143.878 95.9444 137.65 99.3175 129.906 102.035L127.176 102.995L126.173 101.73C119.759 93.6489 107.069 96.8814 105.156 107.094C104.876 108.594 104.783 108.734 104.083 109.039C100.981 110.327 93.6095 110.514 88.9442 109.413C88.5943 109.343 88.3844 109.015 88.1744 108.219C87.7079 106.321 85.8884 103.136 84.3256 101.426L82.856 99.8329L86.6349 93.9768C96.0122 79.524 102.963 70.0372 109.798 62.4477C111.151 60.9485 112.387 59.6602 112.551 59.5899C112.714 59.5431 113.251 59.5899 113.74 59.707C114.254 59.8007 115.606 59.9179 116.773 59.9179C123.934 59.9413 130.302 55.3267 132.588 48.4399C135.621 39.281 130.815 29.4663 121.858 26.5148C119.969 25.9058 119.502 25.8355 116.633 25.8355C113.81 25.8589 113.297 25.9292 111.618 26.5148C108.562 27.5689 105.786 29.4897 103.943 31.7853L102.847 33.1673L99.931 31.3168C95.0325 28.2482 89.8306 25.7418 84.0923 23.7039C82.5527 23.1651 81.2931 22.6264 81.2931 22.5327C81.3164 22.4155 81.503 21.502 81.7363 20.4713C82.0629 19.1127 82.1329 18.082 82.0629 16.4658L81.9462 14.2873L84.7688 13.1864C95.6389 8.92313 106.183 6.74467 117.099 6.55728C118.056 6.53386 120.528 6.62755 122.581 6.74467ZM70.073 9.90696C72.2191 10.68 74.2718 12.671 75.0183 14.7324C75.5081 16.091 75.5081 18.3397 74.9949 19.8389C74.5051 21.3146 72.7789 23.2822 71.216 24.1255C68.0669 25.8589 63.9381 25.203 61.3489 22.5795C59.1095 20.3073 58.5497 16.8171 59.9493 13.8657C60.6258 12.5071 62.7018 10.6331 64.2181 10.0475C65.6643 9.48532 68.6968 9.41505 70.073 9.90696ZM172.453 14.7324C173.596 15.0369 175.136 16.4423 175.672 17.637C176.232 18.855 176.232 20.8695 175.672 22.0876C174.18 25.3436 170.261 26.2337 167.671 23.8913C166.435 22.7669 165.852 21.502 165.852 19.8623C165.852 16.2784 169.071 13.772 172.453 14.7324ZM183.533 32.4411C191.115 40.4288 196.293 47.0813 200.865 54.6942C209.123 68.4912 213.438 83.2719 213.438 97.631L213.415 101.496L212.482 101.918C211.105 102.574 209.356 104.049 208.236 105.502C207.7 106.204 207.117 106.766 206.953 106.766C206.463 106.766 199.722 103.229 197.156 101.613C194.59 99.9969 190.741 97.1625 188.852 95.4525C187.732 94.4687 187.709 94.4219 188.082 93.8597C188.759 92.8056 189.878 89.0577 190.158 86.7855C191.185 78.6339 186.729 70.2246 179.381 66.383C178.542 65.9613 177.329 65.4226 176.675 65.2118L175.486 64.8135L175.346 59.262C175.136 51.2509 174.343 43.0524 173.083 35.5332C172.453 31.7853 172.43 31.879 173.573 31.6916C174.809 31.4807 177.958 29.8879 178.682 29.1149C178.985 28.787 179.358 28.5293 179.521 28.5293C179.685 28.5293 181.481 30.2861 183.533 32.4411ZM121.112 33.5187C124.121 34.9944 126.127 37.8053 126.71 41.2721C127.246 44.5047 125.917 48.2994 123.514 50.5013C118.429 55.1627 110.731 53.6636 107.769 47.4327C104.993 41.6469 107.885 34.8304 113.95 32.8159C114.533 32.6285 115.723 32.5348 117.123 32.5817C119.175 32.6285 119.525 32.7222 121.112 33.5187ZM173.13 71.185C177.515 72.0985 181.621 75.9401 183.02 80.461C183.207 81.07 183.417 82.4286 183.51 83.4593C183.813 87.6288 182.46 91.3064 179.521 94.2345C176.839 96.9048 173.993 98.0995 170.284 98.0995C166.575 98.0995 163.729 96.9048 161.07 94.2345C157.571 90.7443 156.241 85.8954 157.454 81.1403C158.108 78.5636 159.181 76.6897 161.07 74.7923C162.819 73.0355 164.756 71.8877 167.018 71.3021C168.581 70.8804 171.45 70.8336 173.13 71.185ZM41.9178 74.7454C44.857 76.7834 44.8337 81.4682 41.9178 83.5061C41.0781 84.0917 40.7748 84.162 39.1886 84.162C37.6024 84.162 37.2992 84.0917 36.4594 83.5061C33.7769 81.6322 33.497 77.4627 35.8763 75.1905C36.9026 74.2535 37.7657 73.949 39.4452 74.0427C40.6815 74.0896 41.1714 74.2301 41.9178 74.7454ZM76.3012 103.674C82.7627 106.86 84.1856 115.855 79.0538 121.008C74.1785 125.904 66.1775 124.452 63.0751 118.127C60.2525 112.295 63.145 105.057 69.1166 103.112C69.7465 102.901 70.9361 102.808 72.4523 102.855C74.5517 102.901 74.9483 102.995 76.3012 103.674ZM119.082 104.401C120.902 105.22 122.045 107.141 122.045 109.343C122.045 112.482 119.899 114.731 116.866 114.731C113.834 114.731 111.688 112.482 111.688 109.343C111.688 106.204 113.834 103.956 116.866 103.956C117.613 103.956 118.546 104.143 119.082 104.401ZM220.086 107.914C222.069 108.828 223.282 110.819 223.282 113.091C223.282 116.3 220.949 118.713 217.87 118.713C214.791 118.713 212.458 116.3 212.458 113.091C212.458 109.882 214.791 107.469 217.87 107.469C218.64 107.469 219.526 107.657 220.086 107.914ZM139.61 154.81C141.429 155.489 143.482 157.457 144.461 159.448C145.161 160.923 145.208 161.134 145.208 163.688C145.208 166.264 145.161 166.452 144.438 167.951C141.779 173.362 135.247 174.814 131.002 170.926C130.302 170.293 129.462 169.309 129.159 168.771C127.41 165.772 127.41 161.603 129.159 158.604C129.976 157.176 132.052 155.372 133.498 154.81C135.177 154.154 137.883 154.154 139.61 154.81ZM191.768 154.833C192.258 155.114 192.957 155.747 193.307 156.262C193.89 157.105 193.96 157.41 193.96 159.12C193.96 160.83 193.89 161.134 193.307 161.978C191.045 165.257 186.309 164.226 185.423 160.268C184.933 158.042 186.053 155.442 187.872 154.646C188.992 154.154 190.718 154.248 191.768 154.833ZM55.8205 157.644C57.9199 158.558 59.4828 161.017 59.4828 163.453C59.4828 165.21 58.8529 166.709 57.5 168.068C55.6805 169.895 53.6278 170.387 51.1085 169.637C48.5193 168.864 46.6531 166.288 46.6531 163.453C46.6531 158.675 51.2951 155.723 55.8205 157.644ZM102.287 197.067C103.547 197.7 104.97 199.175 105.669 200.581C106.509 202.314 106.509 205.219 105.646 207.046C104.083 210.396 100.374 212.035 96.9452 210.864C95.4523 210.349 93.5162 208.522 92.8164 206.976C92.0233 205.149 92.0233 202.478 92.8631 200.698C93.7262 198.871 94.5193 198.028 96.1755 197.184C97.5051 196.505 97.785 196.458 99.4878 196.528C100.724 196.575 101.681 196.763 102.287 197.067ZM172.523 211.825C174.016 212.27 175.159 213.23 175.999 214.776C177.282 217.142 176.839 220.328 174.949 222.201C172.5 224.661 168.978 224.661 166.528 222.201C164.079 219.742 164.079 215.807 166.528 213.347C168.255 211.614 170.191 211.122 172.523 211.825Z" fill="#00A19D"/>
</svg>
